<mxfile host="app.diagrams.net" agent="Mozilla/5.0 (X11; Linux x86_64; rv:136.0) Gecko/20100101 Firefox/136.0" version="26.1.3" pages="2">
  <diagram name="setup" id="2YBvvXClWsGukQMizWep">
    <mxGraphModel dx="1044" dy="1274" grid="1" gridSize="10" guides="1" tooltips="1" connect="1" arrows="1" fold="1" page="1" pageScale="1" pageWidth="850" pageHeight="1100" math="0" shadow="0">
      <root>
        <mxCell id="0" />
        <mxCell id="1" parent="0" />
        <mxCell id="aM9ryv3xv72pqoxQDRHE-1" value="main.c" style="shape=umlLifeline;perimeter=lifelinePerimeter;whiteSpace=wrap;html=1;container=0;dropTarget=0;collapsible=0;recursiveResize=0;outlineConnect=0;portConstraint=eastwest;newEdgeStyle={&quot;edgeStyle&quot;:&quot;elbowEdgeStyle&quot;,&quot;elbow&quot;:&quot;vertical&quot;,&quot;curved&quot;:0,&quot;rounded&quot;:0};" parent="1" vertex="1">
          <mxGeometry x="150" y="70" width="100" height="480" as="geometry" />
        </mxCell>
        <mxCell id="vyojKmdW47dZhM4BGLZJ-18" style="edgeStyle=elbowEdgeStyle;rounded=0;orthogonalLoop=1;jettySize=auto;html=1;" edge="1" parent="aM9ryv3xv72pqoxQDRHE-1" target="vyojKmdW47dZhM4BGLZJ-19">
          <mxGeometry relative="1" as="geometry">
            <mxPoint x="120" y="140" as="targetPoint" />
            <mxPoint x="55" y="140.14285714285722" as="sourcePoint" />
            <Array as="points">
              <mxPoint x="150" y="160" />
            </Array>
          </mxGeometry>
        </mxCell>
        <mxCell id="vyojKmdW47dZhM4BGLZJ-25" value="register_signal_handler(SIGSEGV)" style="edgeLabel;html=1;align=center;verticalAlign=bottom;resizable=0;points=[];labelPosition=center;verticalLabelPosition=top;" vertex="1" connectable="0" parent="vyojKmdW47dZhM4BGLZJ-18">
          <mxGeometry x="-0.3034" relative="1" as="geometry">
            <mxPoint x="34" as="offset" />
          </mxGeometry>
        </mxCell>
        <mxCell id="aM9ryv3xv72pqoxQDRHE-2" value="" style="html=1;points=[];perimeter=orthogonalPerimeter;outlineConnect=0;targetShapes=umlLifeline;portConstraint=eastwest;newEdgeStyle={&quot;edgeStyle&quot;:&quot;elbowEdgeStyle&quot;,&quot;elbow&quot;:&quot;vertical&quot;,&quot;curved&quot;:0,&quot;rounded&quot;:0};" parent="aM9ryv3xv72pqoxQDRHE-1" vertex="1">
          <mxGeometry x="45" y="70" width="10" height="390" as="geometry" />
        </mxCell>
        <mxCell id="vyojKmdW47dZhM4BGLZJ-19" value="" style="html=1;points=[];perimeter=orthogonalPerimeter;outlineConnect=0;targetShapes=umlLifeline;portConstraint=eastwest;newEdgeStyle={&quot;edgeStyle&quot;:&quot;elbowEdgeStyle&quot;,&quot;elbow&quot;:&quot;vertical&quot;,&quot;curved&quot;:0,&quot;rounded&quot;:0};" vertex="1" parent="aM9ryv3xv72pqoxQDRHE-1">
          <mxGeometry x="51" y="147" width="10" height="73" as="geometry" />
        </mxCell>
        <mxCell id="vyojKmdW47dZhM4BGLZJ-29" style="edgeStyle=elbowEdgeStyle;rounded=0;orthogonalLoop=1;jettySize=auto;html=1;" edge="1" target="vyojKmdW47dZhM4BGLZJ-33" parent="aM9ryv3xv72pqoxQDRHE-1">
          <mxGeometry relative="1" as="geometry">
            <mxPoint x="120" y="238.86" as="targetPoint" />
            <mxPoint x="55" y="239.00285714285724" as="sourcePoint" />
            <Array as="points">
              <mxPoint x="150" y="258.86" />
            </Array>
          </mxGeometry>
        </mxCell>
        <mxCell id="vyojKmdW47dZhM4BGLZJ-30" value="register_signal_handler(SIGTRAP)" style="edgeLabel;html=1;align=center;verticalAlign=bottom;resizable=0;points=[];labelPosition=center;verticalLabelPosition=top;" vertex="1" connectable="0" parent="vyojKmdW47dZhM4BGLZJ-29">
          <mxGeometry x="-0.3034" relative="1" as="geometry">
            <mxPoint x="34" as="offset" />
          </mxGeometry>
        </mxCell>
        <mxCell id="vyojKmdW47dZhM4BGLZJ-31" value="sigaction" style="edgeStyle=elbowEdgeStyle;rounded=0;orthogonalLoop=1;jettySize=auto;html=1;elbow=vertical;curved=0;labelPosition=center;verticalLabelPosition=top;align=center;verticalAlign=bottom;" edge="1" source="vyojKmdW47dZhM4BGLZJ-33" parent="aM9ryv3xv72pqoxQDRHE-1">
          <mxGeometry relative="1" as="geometry">
            <mxPoint x="605" y="277.86" as="targetPoint" />
            <mxPoint x="101" y="278.86" as="sourcePoint" />
          </mxGeometry>
        </mxCell>
        <mxCell id="vyojKmdW47dZhM4BGLZJ-32" style="edgeStyle=elbowEdgeStyle;rounded=0;orthogonalLoop=1;jettySize=auto;html=1;elbow=vertical;curved=0;entryX=1.035;entryY=0.897;entryDx=0;entryDy=0;entryPerimeter=0;" edge="1" target="vyojKmdW47dZhM4BGLZJ-33" parent="aM9ryv3xv72pqoxQDRHE-1">
          <mxGeometry relative="1" as="geometry">
            <mxPoint x="605" y="301.86" as="sourcePoint" />
          </mxGeometry>
        </mxCell>
        <mxCell id="vyojKmdW47dZhM4BGLZJ-33" value="" style="html=1;points=[];perimeter=orthogonalPerimeter;outlineConnect=0;targetShapes=umlLifeline;portConstraint=eastwest;newEdgeStyle={&quot;edgeStyle&quot;:&quot;elbowEdgeStyle&quot;,&quot;elbow&quot;:&quot;vertical&quot;,&quot;curved&quot;:0,&quot;rounded&quot;:0};" vertex="1" parent="aM9ryv3xv72pqoxQDRHE-1">
          <mxGeometry x="51" y="245.86" width="10" height="63" as="geometry" />
        </mxCell>
        <mxCell id="aM9ryv3xv72pqoxQDRHE-5" value="libc/sigaction.c" style="shape=umlLifeline;perimeter=lifelinePerimeter;whiteSpace=wrap;html=1;container=0;dropTarget=0;collapsible=0;recursiveResize=0;outlineConnect=0;portConstraint=eastwest;newEdgeStyle={&quot;edgeStyle&quot;:&quot;elbowEdgeStyle&quot;,&quot;elbow&quot;:&quot;vertical&quot;,&quot;curved&quot;:0,&quot;rounded&quot;:0};" parent="1" vertex="1">
          <mxGeometry x="710" y="70" width="100" height="480" as="geometry" />
        </mxCell>
        <mxCell id="aM9ryv3xv72pqoxQDRHE-6" value="" style="html=1;points=[];perimeter=orthogonalPerimeter;outlineConnect=0;targetShapes=umlLifeline;portConstraint=eastwest;newEdgeStyle={&quot;edgeStyle&quot;:&quot;elbowEdgeStyle&quot;,&quot;elbow&quot;:&quot;vertical&quot;,&quot;curved&quot;:0,&quot;rounded&quot;:0};" parent="aM9ryv3xv72pqoxQDRHE-5" vertex="1">
          <mxGeometry x="45" y="170" width="10" height="40" as="geometry" />
        </mxCell>
        <mxCell id="vyojKmdW47dZhM4BGLZJ-35" value="" style="html=1;points=[];perimeter=orthogonalPerimeter;outlineConnect=0;targetShapes=umlLifeline;portConstraint=eastwest;newEdgeStyle={&quot;edgeStyle&quot;:&quot;elbowEdgeStyle&quot;,&quot;elbow&quot;:&quot;vertical&quot;,&quot;curved&quot;:0,&quot;rounded&quot;:0};" vertex="1" parent="aM9ryv3xv72pqoxQDRHE-5">
          <mxGeometry x="45" y="268.86" width="10" height="40" as="geometry" />
        </mxCell>
        <mxCell id="aM9ryv3xv72pqoxQDRHE-7" value="register_aep_cb" style="html=1;verticalAlign=bottom;endArrow=block;edgeStyle=elbowEdgeStyle;elbow=vertical;curved=0;rounded=0;" parent="1" source="aM9ryv3xv72pqoxQDRHE-2" target="vyojKmdW47dZhM4BGLZJ-4" edge="1">
          <mxGeometry relative="1" as="geometry">
            <mxPoint x="345" y="160" as="sourcePoint" />
            <Array as="points">
              <mxPoint x="330" y="150" />
            </Array>
            <mxPoint x="360" y="150" as="targetPoint" />
          </mxGeometry>
        </mxCell>
        <mxCell id="vyojKmdW47dZhM4BGLZJ-3" value="libsgxstep/enclave.c" style="shape=umlLifeline;perimeter=lifelinePerimeter;whiteSpace=wrap;html=1;container=0;dropTarget=0;collapsible=0;recursiveResize=0;outlineConnect=0;portConstraint=eastwest;newEdgeStyle={&quot;edgeStyle&quot;:&quot;elbowEdgeStyle&quot;,&quot;elbow&quot;:&quot;vertical&quot;,&quot;curved&quot;:0,&quot;rounded&quot;:0};" vertex="1" parent="1">
          <mxGeometry x="340" y="70" width="130" height="480" as="geometry" />
        </mxCell>
        <mxCell id="vyojKmdW47dZhM4BGLZJ-4" value="" style="html=1;points=[];perimeter=orthogonalPerimeter;outlineConnect=0;targetShapes=umlLifeline;portConstraint=eastwest;newEdgeStyle={&quot;edgeStyle&quot;:&quot;elbowEdgeStyle&quot;,&quot;elbow&quot;:&quot;vertical&quot;,&quot;curved&quot;:0,&quot;rounded&quot;:0};" vertex="1" parent="vyojKmdW47dZhM4BGLZJ-3">
          <mxGeometry x="60" y="70" width="10" height="50" as="geometry" />
        </mxCell>
        <mxCell id="vyojKmdW47dZhM4BGLZJ-37" value="" style="html=1;points=[];perimeter=orthogonalPerimeter;outlineConnect=0;targetShapes=umlLifeline;portConstraint=eastwest;newEdgeStyle={&quot;edgeStyle&quot;:&quot;elbowEdgeStyle&quot;,&quot;elbow&quot;:&quot;vertical&quot;,&quot;curved&quot;:0,&quot;rounded&quot;:0};" vertex="1" parent="vyojKmdW47dZhM4BGLZJ-3">
          <mxGeometry x="60" y="330" width="10" height="40" as="geometry" />
        </mxCell>
        <mxCell id="vyojKmdW47dZhM4BGLZJ-5" value="bare-sgx/urts/aep.c" style="shape=umlLifeline;perimeter=lifelinePerimeter;whiteSpace=wrap;html=1;container=0;dropTarget=0;collapsible=0;recursiveResize=0;outlineConnect=0;portConstraint=eastwest;newEdgeStyle={&quot;edgeStyle&quot;:&quot;elbowEdgeStyle&quot;,&quot;elbow&quot;:&quot;vertical&quot;,&quot;curved&quot;:0,&quot;rounded&quot;:0};" vertex="1" parent="1">
          <mxGeometry x="530" y="70" width="130" height="480" as="geometry" />
        </mxCell>
        <mxCell id="vyojKmdW47dZhM4BGLZJ-6" value="" style="html=1;points=[];perimeter=orthogonalPerimeter;outlineConnect=0;targetShapes=umlLifeline;portConstraint=eastwest;newEdgeStyle={&quot;edgeStyle&quot;:&quot;elbowEdgeStyle&quot;,&quot;elbow&quot;:&quot;vertical&quot;,&quot;curved&quot;:0,&quot;rounded&quot;:0};" vertex="1" parent="vyojKmdW47dZhM4BGLZJ-5">
          <mxGeometry x="60" y="75" width="10" height="40" as="geometry" />
        </mxCell>
        <mxCell id="vyojKmdW47dZhM4BGLZJ-7" style="edgeStyle=elbowEdgeStyle;rounded=0;orthogonalLoop=1;jettySize=auto;html=1;elbow=vertical;curved=0;entryX=0;entryY=0.25;entryDx=0;entryDy=0;entryPerimeter=0;verticalAlign=top;" edge="1" parent="1" source="vyojKmdW47dZhM4BGLZJ-4" target="vyojKmdW47dZhM4BGLZJ-6">
          <mxGeometry relative="1" as="geometry">
            <mxPoint x="590" y="165" as="targetPoint" />
          </mxGeometry>
        </mxCell>
        <mxCell id="vyojKmdW47dZhM4BGLZJ-9" value="sgx_set_aep" style="edgeLabel;html=1;align=center;verticalAlign=bottom;resizable=0;points=[];labelPosition=center;verticalLabelPosition=top;" vertex="1" connectable="0" parent="vyojKmdW47dZhM4BGLZJ-7">
          <mxGeometry x="0.1386" y="1" relative="1" as="geometry">
            <mxPoint as="offset" />
          </mxGeometry>
        </mxCell>
        <mxCell id="vyojKmdW47dZhM4BGLZJ-13" value="" style="endArrow=classic;html=1;rounded=0;exitX=-0.184;exitY=0.771;exitDx=0;exitDy=0;exitPerimeter=0;" edge="1" parent="1" source="vyojKmdW47dZhM4BGLZJ-6" target="vyojKmdW47dZhM4BGLZJ-4">
          <mxGeometry width="50" height="50" relative="1" as="geometry">
            <mxPoint x="430" y="350" as="sourcePoint" />
            <mxPoint x="480" y="300" as="targetPoint" />
          </mxGeometry>
        </mxCell>
        <mxCell id="vyojKmdW47dZhM4BGLZJ-17" style="edgeStyle=elbowEdgeStyle;rounded=0;orthogonalLoop=1;jettySize=auto;html=1;elbow=vertical;curved=0;" edge="1" parent="1" target="aM9ryv3xv72pqoxQDRHE-2">
          <mxGeometry relative="1" as="geometry">
            <mxPoint x="400" y="180" as="sourcePoint" />
            <mxPoint x="245" y="179.99947368421053" as="targetPoint" />
          </mxGeometry>
        </mxCell>
        <mxCell id="vyojKmdW47dZhM4BGLZJ-26" value="sigaction" style="edgeStyle=elbowEdgeStyle;rounded=0;orthogonalLoop=1;jettySize=auto;html=1;elbow=vertical;curved=0;labelPosition=center;verticalLabelPosition=top;align=center;verticalAlign=bottom;" edge="1" parent="1">
          <mxGeometry relative="1" as="geometry">
            <mxPoint x="755" y="260" as="targetPoint" />
            <mxPoint x="211" y="260" as="sourcePoint" />
            <Array as="points">
              <mxPoint x="730" y="260" />
            </Array>
          </mxGeometry>
        </mxCell>
        <mxCell id="vyojKmdW47dZhM4BGLZJ-28" style="edgeStyle=elbowEdgeStyle;rounded=0;orthogonalLoop=1;jettySize=auto;html=1;elbow=vertical;curved=0;entryX=1.035;entryY=0.897;entryDx=0;entryDy=0;entryPerimeter=0;" edge="1" parent="1" source="aM9ryv3xv72pqoxQDRHE-6" target="vyojKmdW47dZhM4BGLZJ-19">
          <mxGeometry relative="1" as="geometry">
            <Array as="points">
              <mxPoint x="240" y="282" />
            </Array>
          </mxGeometry>
        </mxCell>
        <mxCell id="vyojKmdW47dZhM4BGLZJ-36" value="set_debug_optin" style="edgeStyle=elbowEdgeStyle;rounded=0;orthogonalLoop=1;jettySize=auto;html=1;elbow=vertical;curved=0;" edge="1" parent="1">
          <mxGeometry x="0.0769" y="10" relative="1" as="geometry">
            <mxPoint x="205" y="409.9970129870129" as="sourcePoint" />
            <mxPoint x="400" y="409.9970129870129" as="targetPoint" />
            <mxPoint as="offset" />
          </mxGeometry>
        </mxCell>
        <mxCell id="vyojKmdW47dZhM4BGLZJ-38" style="edgeStyle=elbowEdgeStyle;rounded=0;orthogonalLoop=1;jettySize=auto;html=1;elbow=vertical;curved=0;" edge="1" parent="1">
          <mxGeometry relative="1" as="geometry">
            <mxPoint x="400" y="430.0723529411766" as="sourcePoint" />
            <mxPoint x="205" y="430.0723529411766" as="targetPoint" />
          </mxGeometry>
        </mxCell>
        <mxCell id="vyojKmdW47dZhM4BGLZJ-39" value="sgx_step_do_trap = 1" style="endArrow=classic;html=1;rounded=0;dashed=1;" edge="1" parent="1">
          <mxGeometry width="50" height="50" relative="1" as="geometry">
            <mxPoint x="211" y="246" as="sourcePoint" />
            <mxPoint x="404.5" y="246" as="targetPoint" />
          </mxGeometry>
        </mxCell>
        <mxCell id="vyojKmdW47dZhM4BGLZJ-41" value="SETUP" style="rounded=1;whiteSpace=wrap;html=1;fillColor=#d5e8d4;strokeColor=#82b366;" vertex="1" parent="1">
          <mxGeometry x="20" y="20" width="120" height="60" as="geometry" />
        </mxCell>
      </root>
    </mxGraphModel>
  </diagram>
  <diagram id="oBPyx493pM-k2JimZHjX" name="trap_fault">
    <mxGraphModel dx="870" dy="1062" grid="1" gridSize="10" guides="1" tooltips="1" connect="1" arrows="1" fold="1" page="1" pageScale="1" pageWidth="1600" pageHeight="900" math="0" shadow="0">
      <root>
        <mxCell id="0" />
        <mxCell id="1" parent="0" />
        <mxCell id="0O4CwGZd9FIn7mUO2o7m-1" value="main.c" style="shape=umlLifeline;perimeter=lifelinePerimeter;whiteSpace=wrap;html=1;container=0;dropTarget=0;collapsible=0;recursiveResize=0;outlineConnect=0;portConstraint=eastwest;newEdgeStyle={&quot;edgeStyle&quot;:&quot;elbowEdgeStyle&quot;,&quot;elbow&quot;:&quot;vertical&quot;,&quot;curved&quot;:0,&quot;rounded&quot;:0};" vertex="1" parent="1">
          <mxGeometry x="150" y="70" width="100" height="480" as="geometry" />
        </mxCell>
        <mxCell id="0O4CwGZd9FIn7mUO2o7m-4" value="" style="html=1;points=[];perimeter=orthogonalPerimeter;outlineConnect=0;targetShapes=umlLifeline;portConstraint=eastwest;newEdgeStyle={&quot;edgeStyle&quot;:&quot;elbowEdgeStyle&quot;,&quot;elbow&quot;:&quot;vertical&quot;,&quot;curved&quot;:0,&quot;rounded&quot;:0};" vertex="1" parent="0O4CwGZd9FIn7mUO2o7m-1">
          <mxGeometry x="45" y="70" width="10" height="80" as="geometry" />
        </mxCell>
        <mxCell id="0O4CwGZd9FIn7mUO2o7m-38" value="" style="html=1;points=[];perimeter=orthogonalPerimeter;outlineConnect=0;targetShapes=umlLifeline;portConstraint=eastwest;newEdgeStyle={&quot;edgeStyle&quot;:&quot;elbowEdgeStyle&quot;,&quot;elbow&quot;:&quot;vertical&quot;,&quot;curved&quot;:0,&quot;rounded&quot;:0};" vertex="1" parent="0O4CwGZd9FIn7mUO2o7m-1">
          <mxGeometry x="45" y="180" width="10" height="80" as="geometry" />
        </mxCell>
        <mxCell id="0O4CwGZd9FIn7mUO2o7m-39" value="step_cnt++" style="endArrow=classic;dashed=1;html=1;dashPattern=1 3;strokeWidth=2;rounded=0;endFill=1;labelPosition=center;verticalLabelPosition=middle;align=center;verticalAlign=middle;" edge="1" parent="0O4CwGZd9FIn7mUO2o7m-1" source="0O4CwGZd9FIn7mUO2o7m-38" target="0O4CwGZd9FIn7mUO2o7m-38">
          <mxGeometry width="50" height="50" relative="1" as="geometry">
            <mxPoint x="60" y="200" as="sourcePoint" />
            <mxPoint x="170" y="204" as="targetPoint" />
            <Array as="points">
              <mxPoint x="160" y="200" />
              <mxPoint x="160" y="230" />
            </Array>
          </mxGeometry>
        </mxCell>
        <mxCell id="0O4CwGZd9FIn7mUO2o7m-15" value="x86_64-linux-gnu/sys/ucontext" style="shape=umlLifeline;perimeter=lifelinePerimeter;whiteSpace=wrap;html=1;container=0;dropTarget=0;collapsible=0;recursiveResize=0;outlineConnect=0;portConstraint=eastwest;newEdgeStyle={&quot;edgeStyle&quot;:&quot;elbowEdgeStyle&quot;,&quot;elbow&quot;:&quot;vertical&quot;,&quot;curved&quot;:0,&quot;rounded&quot;:0};" vertex="1" parent="1">
          <mxGeometry x="340" y="70" width="200" height="480" as="geometry" />
        </mxCell>
        <mxCell id="0O4CwGZd9FIn7mUO2o7m-29" value="TRAP FAULT" style="rounded=1;whiteSpace=wrap;html=1;fillColor=#dae8fc;strokeColor=#6c8ebf;" vertex="1" parent="1">
          <mxGeometry x="20" y="20" width="120" height="60" as="geometry" />
        </mxCell>
        <mxCell id="0O4CwGZd9FIn7mUO2o7m-33" value="handle_fault" style="endArrow=classic;html=1;rounded=0;labelPosition=center;verticalLabelPosition=top;align=center;verticalAlign=bottom;" edge="1" parent="1">
          <mxGeometry width="50" height="50" relative="1" as="geometry">
            <mxPoint x="100" y="160" as="sourcePoint" />
            <mxPoint x="195" y="160" as="targetPoint" />
          </mxGeometry>
        </mxCell>
        <mxCell id="0O4CwGZd9FIn7mUO2o7m-34" value="clear RFLAGS.TF" style="endArrow=classic;dashed=1;html=1;dashPattern=1 3;strokeWidth=2;rounded=0;endFill=1;" edge="1" parent="1" target="0O4CwGZd9FIn7mUO2o7m-15">
          <mxGeometry width="50" height="50" relative="1" as="geometry">
            <mxPoint x="210" y="160" as="sourcePoint" />
            <mxPoint x="375" y="160" as="targetPoint" />
          </mxGeometry>
        </mxCell>
        <mxCell id="0O4CwGZd9FIn7mUO2o7m-37" value="aep_cb_func" style="endArrow=classic;html=1;rounded=0;labelPosition=center;verticalLabelPosition=top;align=center;verticalAlign=bottom;" edge="1" parent="1">
          <mxGeometry width="50" height="50" relative="1" as="geometry">
            <mxPoint x="100" y="270" as="sourcePoint" />
            <mxPoint x="195" y="270" as="targetPoint" />
          </mxGeometry>
        </mxCell>
      </root>
    </mxGraphModel>
  </diagram>
</mxfile>
